<svg height="346.667" version="1" viewBox="0 0 260.000000 260.000000" width="346.667"
  xmlns="http://www.w3.org/2000/svg">
  <path
    d="M15.1 1.1C10.5 2.5 2.7 10.5 1.2 15.6c-1.6 5.5-1.7 222.9-.1 228.8 1.4 5.1 9.1 12.8 14.5 14.4 5.5 1.6 222.9 1.7 228.8.1 5.1-1.4 12.8-9.1 14.4-14.5 1.6-5.5 1.7-222.9.1-228.8-1.4-5.1-9.1-12.8-14.5-14.4C239.2-.3 20.5-.4 15.1 1.1zm186.5 60c17.5 3.2 30.6 16 34.9 34.1.8 3.5 1.5 6.6 1.5 7 0 .5-3.8.8-8.4.8h-8.4l-1.2-5.3c-2.7-11.5-9-19.2-18.3-22.3-7.4-2.5-20.6-1.6-27.3 1.8-15.1 7.8-21.2 24.4-20.1 54.8.8 21.2 3.2 29.5 11.2 38.8 7.2 8.4 18.8 11.7 31.9 9.2 11.8-2.2 18.7-8.9 22.1-21.5l1.8-6.5h16.9l-.7 3.2c-3.6 18.2-12.6 29.7-28.4 36-4.9 2-7.4 2.3-20.2 2.3h-14.5l-7.5-3.7c-21.8-10.8-31.4-33.4-29.5-69.8.3-6.9 1.3-15.4 2.1-19 7.1-29.5 31.9-45.4 62.1-39.9zM45 94c0 17.6.3 32 .8 32 .4 0 13.7-14.4 29.5-32l28.8-32h20.2l-2 2.2c-1.1 1.3-11.2 12.6-22.4 25.3-11.2 12.6-21.8 24.6-23.6 26.5l-3.2 3.6L88.7 140c8.6 11.3 21.1 27.8 28 36.7L129 193l-10.2-.1h-10.3l-23-30.4c-12.6-16.7-23.3-30.4-23.6-30.5-.4 0-4.3 3.9-8.8 8.6l-8.1 8.5V193H29V62h16v32z"/>
</svg>